<?xml version="1.0" encoding="UTF-8"?>
<!-- Generated by Pixelmator Pro 2.4.3 -->
<svg width="64" height="64" viewBox="0 0 64 64" xmlns="http://www.w3.org/2000/svg" xmlns:xlink="http://www.w3.org/1999/xlink">
    <path id="path1" fill="#2dc100" stroke="none" d="M 64 54.400002 C 64 59.702187 59.701973 64 54.400002 64 L 9.6 64 C 4.297813 64 -0 59.702187 -0 54.400002 L -0 9.599998 C -0 4.298027 4.298027 0 9.6 0 L 54.400002 0 C 59.701973 0 64 4.298027 64 9.599998 L 64 54.400002 Z"/>
    <g id="g1">
        <path id="path2" fill="#ffffff" stroke="none" d="M 42.837975 23.867733 C 37.672531 24.1376 33.180801 25.703468 29.534081 29.241173 C 25.8496 32.815361 24.167681 37.195095 24.627415 42.624428 C 22.608425 42.374401 20.769495 42.099197 18.920107 41.943466 C 18.281387 41.889709 17.523413 41.96608 16.982401 42.271362 C 15.186559 43.284695 13.46496 44.428799 11.424426 45.704323 C 11.798827 44.01088 12.041173 42.528 12.470187 41.101654 C 12.785707 40.053333 12.639574 39.469864 11.673814 38.787201 C 5.473067 34.409386 2.859307 27.857704 4.81536 21.112534 C 6.625067 14.872536 11.069227 11.088211 17.107841 9.115517 C 25.349974 6.423252 34.612694 9.169491 39.624535 15.71328 C 41.434669 18.077011 42.54464 20.730026 42.837975 23.867733 Z M 19.064747 21.765972 C 19.11232 20.532265 18.043306 19.420799 16.773546 19.383682 C 15.473493 19.345493 14.404266 20.338985 14.366294 21.620052 C 14.327894 22.9184 15.320961 23.958824 16.6304 23.992107 C 17.928534 24.02496 19.016747 23.030186 19.064747 21.765972 Z M 31.468163 19.382828 C 30.193708 19.406296 29.116798 20.491734 29.139414 21.730347 C 29.162666 23.014183 30.219091 24.018559 31.5296 24.002773 C 32.843517 23.986988 33.84 22.971947 33.827625 21.661015 C 33.81675 20.374184 32.765011 19.359146 31.468163 19.382828 Z"/>
        <path id="path3" fill="#ffffff" stroke="none" d="M 54.442883 56.070396 C 52.807251 55.342079 51.306881 54.24939 49.709438 54.082558 C 48.118187 53.916374 46.445438 54.834351 44.780586 55.004589 C 39.709442 55.523411 35.16629 54.110081 31.420158 50.64576 C 24.295465 44.055893 25.313494 33.951572 33.55648 28.551254 C 40.882557 23.751678 51.626663 25.351681 56.791893 32.011307 C 61.299416 37.82251 60.769707 45.53664 55.266987 50.41856 C 53.674667 51.831467 53.101654 52.994133 54.123306 54.856743 C 54.311893 55.200638 54.333443 55.636055 54.442883 56.070396 Z M 35.824425 38.043945 C 36.865707 38.045013 37.723095 37.23008 37.762558 36.201599 C 37.804161 35.112747 36.928429 34.199463 35.838078 34.194988 C 34.758614 34.190079 33.854294 35.116158 33.891838 36.188797 C 33.927254 37.213654 34.790611 38.042664 35.824425 38.043945 Z M 47.826771 34.199257 C 46.816425 34.192215 45.957973 35.019306 45.916801 36.040108 C 45.873066 37.131729 46.721493 38.02816 47.801811 38.030937 C 48.846718 38.034348 49.672318 37.24416 49.710293 36.204372 C 49.750824 35.110184 48.901974 34.206718 47.826771 34.199257 Z"/>
    </g>
</svg>
